<?xml version="1.0" encoding="UTF-8"?>
<!DOCTYPE svg PUBLIC "-//W3C//DTD SVG 1.1//EN" "http://www.w3.org/Graphics/SVG/1.1/DTD/svg11.dtd">
<!-- Creator: CorelDRAW X8 -->
<svg xmlns="http://www.w3.org/2000/svg" xml:space="preserve" width="1547px" height="2300px" version="1.1" shape-rendering="geometricPrecision" text-rendering="geometricPrecision" image-rendering="optimizeQuality" fill-rule="evenodd" clip-rule="evenodd"
viewBox="0 0 157962569 234874439"
 xmlns:xlink="http://www.w3.org/1999/xlink">
 <g id="Camada_x0020_1">
  <metadata id="CorelCorpID_0Corel-Layer"/>
  <g id="_1927074579104">
   <g>
    <path fill="white" fill-rule="nonzero" d="M155357797 16744219c-112306,-1254074 -1164686,-2237091 -2447952,-2237091 -481556,0 -930180,141017 -1309563,380348 -756594,-1188571 -2084734,-1977735 -3598404,-1977735 -2288478,0 -4155716,1803907 -4258372,4067053 -1080969,487467 -1834064,1573744 -1834064,2836744 0,1718138 1392919,3111057 3111298,3111057l9830772 0c1718017,0 3111057,-1392919 3111057,-3111057 0,-1545517 -1127532,-2827335 -2604772,-3069319z"/>
    <path fill="white" fill-rule="nonzero" d="M142116443 126357292c-50664,-565394 -525104,-1008590 -1103767,-1008590 -217135,0 -419312,63572 -590365,171416 -341143,-535840 -939952,-891700 -1622479,-891700 -1031751,0 -1873631,813290 -1919953,1833702 -487346,219789 -826921,709548 -826921,1279044 0,774568 628122,1402690 1402811,1402690l4432321 0c774568,0 1402690,-628122 1402690,-1402690 0,-696882 -508336,-1274822 -1174337,-1383872z"/>
    <path fill="white" fill-rule="nonzero" d="M144137605 62062393c-16888,-188545 -175034,-336197 -367922,-336197 -72379,0 -139811,21111 -196749,57058 -113754,-178532 -313397,-297112 -540906,-297112 -343917,0 -624504,271056 -639944,611113 -162489,73344 -275641,236556 -275641,426429 0,258149 209415,467442 467564,467442l1477480 0c258149,0 467564,-209293 467564,-467442 0,-232334 -169486,-424981 -391446,-461291z"/>
    <path fill="white" fill-rule="nonzero" d="M147829618 230302307c-83114,-927889 -861663,-1655048 -1811024,-1655048 -356221,0 -688075,104345 -968782,281310 -559725,-879154 -1542259,-1463005 -2662071,-1463005 -1693047,0 -3074385,1334413 -3150262,3008762 -799779,360685 -1356971,1164204 -1356971,2098607 0,1270961 1030545,2301506 2301748,2301506l7272684 0c1271082,0 2301628,-1030545 2301628,-2301506 0,-1143456 -834159,-2091610 -1926950,-2270626z"/>
    <path fill="#FEFEFE" fill-rule="nonzero" d="M139384648 112715807c0,488674 -396150,884824 -884824,884824 -488914,0 -885065,-396150 -885065,-884824 0,-488794 396151,-885065 885065,-885065 488674,0 884824,396271 884824,885065z"/>
    <path fill="#FEFEFE" fill-rule="nonzero" d="M135541485 177649565c0,488674 -396150,884824 -884823,884824 -488915,0 -885065,-396150 -885065,-884824 0,-488794 396150,-885065 885065,-885065 488673,0 884823,396271 884823,885065z"/>
   </g>
   <g>
    <path fill="#FEFEFE" fill-rule="nonzero" d="M33396276 77810929c0,691091 -560449,1251540 -1251541,1251540 -691573,0 -1252022,-560449 -1252022,-1251540 0,-691454 560449,-1252023 1252022,-1252023 691092,0 1251541,560569 1251541,1252023z"/>
    <path fill="white" fill-rule="nonzero" d="M10321255 65398064c-50665,-565395 -525104,-1008591 -1103768,-1008591 -217135,0 -419311,63573 -590365,171416 -341143,-535840 -939952,-891579 -1622479,-891579 -1031751,0 -1873630,813290 -1919952,1833582 -487347,219788 -826922,709548 -826922,1279044 0,774567 628123,1402569 1402811,1402569l4432321 0c774568,0 1402690,-628002 1402690,-1402569 0,-696882 -508336,-1274702 -1174336,-1383872z"/>
    <path fill="white" fill-rule="nonzero" d="M9949110 229451139c-83114,-927888 -861663,-1655048 -1811024,-1655048 -356221,0 -688075,104345 -968782,281310 -559725,-879154 -1542259,-1463005 -2662071,-1463005 -1693047,0 -3074386,1334413 -3150262,3008762 -799779,360685 -1356971,1164204 -1356971,2098607 0,1270961 1030545,2301507 2301748,2301507l7272684 0c1271082,0 2301628,-1030546 2301628,-2301507 0,-1143455 -834159,-2091610 -1926950,-2270626z"/>
    <path fill="white" fill-rule="nonzero" d="M8822784 202162500c-16888,-188545 -175034,-336197 -367922,-336197 -72379,0 -139811,21110 -196748,57058 -113755,-178533 -313398,-297112 -540907,-297112 -343917,0 -624503,271056 -639944,611113 -162489,73343 -275640,236556 -275640,426428 0,258149 209414,467443 467563,467443l1477481 0c258149,0 467563,-209294 467563,-467443 0,-232334 -169486,-424980 -391446,-461290z"/>
    <path fill="white" fill-rule="nonzero" d="M5743935 965525c-28227,-315810 -293252,-563343 -616421,-563343 -121233,0 -234264,35586 -329803,95780 -190475,-299284 -524983,-497962 -906055,-497962 -576372,0 -1046589,454173 -1072404,1024152 -272262,122802 -461893,396271 -461893,714373 0,432580 350793,783373 783494,783373l2475576 0c432701,0 783494,-350793 783494,-783373 0,-389274 -283963,-711961 -655988,-773000z"/>
    <path fill="#FEFEFE" fill-rule="nonzero" d="M34499440 52838633c0,488674 -396150,884824 -884824,884824 -488914,0 -885065,-396150 -885065,-884824 0,-488794 396151,-885065 885065,-885065 488674,0 884824,396271 884824,885065z"/>
    <path fill="#FEFEFE" fill-rule="nonzero" d="M3206596 134869695c0,488673 -396150,884824 -884823,884824 -488915,0 -885065,-396151 -885065,-884824 0,-488794 396150,-885065 885065,-885065 488673,0 884823,396271 884823,885065z"/>
    <path fill="#FEFEFE" fill-rule="nonzero" d="M4292993 38999315c0,488673 -396150,884823 -884823,884823 -488915,0 -885065,-396150 -885065,-884823 0,-488795 396150,-885065 885065,-885065 488673,0 884823,396270 884823,885065z"/>
   </g>
  </g>
 </g>
</svg>
